<svg width="256" height="256" viewBox="0 0 256 256" fill="currentColor" xmlns="http://www.w3.org/2000/svg">
	<path d="M113.5 10.8853L33.8257 56.8853C24.8531 62.0656 19.3257 71.6393 19.3257 82V174C19.3257 184.361 24.8531 193.934 33.8257 199.115L46 206.144V168.205C45.9669 167.806 45.95 167.404 45.95 167V89C45.95 83.8196 48.7137 79.0328 53.2 76.4426L120.75 37.4426C125.236 34.8525 130.764 34.8525 135.25 37.4426L202.8 76.4426C207.286 79.0328 210.05 83.8196 210.05 89V167C210.05 172.18 207.286 176.967 202.8 179.557L135.25 218.557C130.764 221.148 125.236 221.148 120.75 218.557L73 190.989V221.732L113.5 245.115C122.473 250.295 133.527 250.295 142.5 245.115L222.174 199.115C231.147 193.934 236.674 184.361 236.674 174V82C236.674 71.6393 231.147 62.0656 222.174 56.8853L142.5 10.8853C133.527 5.70491 122.473 5.70491 113.5 10.8853Z"/>
	<path d="M80.0469 91.9426L120.75 68.4426C125.236 65.8525 130.764 65.8525 135.25 68.4426L175.953 91.9426C180.44 94.5328 183.203 99.3196 183.203 104.5V151.5C183.203 156.68 180.44 161.467 175.953 164.057L135.25 187.557C130.764 190.148 125.236 190.148 120.75 187.557L80.0469 164.057C75.5606 161.467 72.7969 156.68 72.7969 151.5V104.5C72.7969 99.3196 75.5606 94.5328 80.0469 91.9426ZM154.203 112.871L128 97.743L101.796 112.871V143.128L128 158.256L154.203 143.128V112.871Z" />
</svg>
