<?xml version="1.0" encoding="UTF-8"?>
<svg width="512px" height="512px" viewBox="0 0 512 512" version="1.1" xmlns="http://www.w3.org/2000/svg" xmlns:xlink="http://www.w3.org/1999/xlink">
    <title>logo</title>
    <g id="logo" stroke="none" fill="none">
        <path d="M227,21.7705266 L67.6513257,113.770527 C49.7060633,124.131229 38.6513257,143.278596 38.6513257,164 L38.6513257,348 C38.6513257,368.721404 49.7060633,387.868771 67.6513257,398.229473 L227,490.229473 C244.945262,500.590176 267.054738,500.590176 285,490.229473 L444.348674,398.229473 C462.293937,387.868771 473.348674,368.721404 473.348674,348 L473.348674,164 C473.348674,143.278596 462.293937,124.131229 444.348674,113.770527 L285,21.7705266 C267.054738,11.4098245 244.945262,11.4098245 227,21.7705266 Z M266.5,78.0621778 L404.848674,157.937822 C411.346097,161.689111 415.348674,168.621778 415.348674,176.124356 L415.348674,335.875644 C415.348674,343.378222 411.346097,350.310889 404.848674,354.062178 L266.5,433.937822 C260.002577,437.689111 251.997423,437.689111 245.5,433.937822 L107.151326,354.062178 C100.653903,350.310889 96.6513257,343.378222 96.6513257,335.875644 L96.6513257,176.124356 C96.6513257,168.621778 100.653903,161.689111 107.151326,157.937822 L245.5,78.0621778 C251.997423,74.3108891 260.002577,74.3108891 266.5,78.0621778 Z" id="Polygon" fill="#FFFFFF" fill-rule="nonzero" transform="translate(256, 256) rotate(180) translate(-256, -256)"></path>
        <path d="M195,227.041452 L245.951905,256.458548 C250.28352,258.959407 252.951905,263.581186 252.951905,268.582904 L252.951905,327.417096 C252.951905,332.418814 250.28352,337.040593 245.951905,339.541452 L195,368.958548 C190.668385,371.459407 185.331615,371.459407 181,368.958548 L130.048095,339.541452 C125.71648,337.040593 123.048095,332.418814 123.048095,327.417096 L123.048095,268.582904 C123.048095,263.581186 125.71648,258.959407 130.048095,256.458548 L181,227.041452 C185.331615,224.540593 190.668385,224.540593 195,227.041452 Z" id="Polygon-2" fill="#FFFFFF" fill-rule="evenodd"></path>
        <path d="M263,109.041452 L313.951905,138.458548 C318.28352,140.959407 320.951905,145.581186 320.951905,150.582904 L320.951905,209.417096 C320.951905,214.418814 318.28352,219.040593 313.951905,221.541452 L263,250.958548 C258.668385,253.459407 253.331615,253.459407 249,250.958548 L198.048095,221.541452 C193.71648,219.040593 191.048095,214.418814 191.048095,209.417096 L191.048095,150.582904 C191.048095,145.581186 193.71648,140.959407 198.048095,138.458548 L249,109.041452 C253.331615,106.540593 258.668385,106.540593 263,109.041452 Z" id="Polygon-2" fill="#FFFFFF" fill-rule="evenodd"></path>
        <path d="M331,227.041452 L381.951905,256.458548 C386.28352,258.959407 388.951905,263.581186 388.951905,268.582904 L388.951905,327.417096 C388.951905,332.418814 386.28352,337.040593 381.951905,339.541452 L331,368.958548 C326.668385,371.459407 321.331615,371.459407 317,368.958548 L266.048095,339.541452 C261.71648,337.040593 259.048095,332.418814 259.048095,327.417096 L259.048095,268.582904 C259.048095,263.581186 261.71648,258.959407 266.048095,256.458548 L317,227.041452 C321.331615,224.540593 326.668385,224.540593 331,227.041452 Z" id="Polygon-2" fill="#FFFFFF" fill-rule="evenodd"></path>
    </g>
</svg>