<svg height="512" viewBox="0 0 512 512" width="512" xmlns="http://www.w3.org/2000/svg"><path d="m255.5 202 47.020738 26.25v52.5l-47.020738 26.25-47.020738-26.25v-52.5zm25.5 239.021454-26.051643 42.978546-152.948357-84.350417.420188-168.299166 152.528169-84.350417m-97.948357 57v168.265079l152.578512 84.734921 153.421488-84.333333-26.132231-42.969842m-279.867769-18.030158 152.789546 84.333333 153.210454-83.530159v-169.469841h-51.771664m-154.176693 222 152.528169-84.350417.420188-168.299166-152.948357-84.350417-26.051643 42.9785459m124 237.0214541v-168.265079l-152.578512-84.734921-153.421488 84.333333 26.1322314 42.969842m279.8677686 19.496507-152.789546-83.799682-153.210454 83.00159v167.99841h51.771664" fill="none" stroke="#fff" stroke-linejoin="round" stroke-opacity=".746859" stroke-width="30"/></svg>